<?xml version="1.0" encoding="UTF-8"?>
<svg xmlns="http://www.w3.org/2000/svg" xmlns:xlink="http://www.w3.org/1999/xlink" width="25px" height="25px" viewBox="0 0 25 25" version="1.1">
<g id="surface1">
<path style=" stroke:none;fill-rule:nonzero;fill:rgb(25.098039%,65.098039%,49.411765%);fill-opacity:1;" d="M 24.421875 12.503906 C 24.421875 19.085938 19.085938 24.421875 12.503906 24.421875 C 5.921875 24.421875 0.589844 19.085938 0.589844 12.503906 C 0.589844 5.921875 5.921875 0.589844 12.503906 0.589844 C 19.085938 0.589844 24.421875 5.921875 24.421875 12.503906 Z M 24.421875 12.503906 "/>
<path style=" stroke:none;fill-rule:nonzero;fill:rgb(99.607843%,99.607843%,99.607843%);fill-opacity:1;" d="M 12.554688 20.660156 C 9.691406 20.628906 7.476562 18.6875 6.929688 16.171875 C 6.683594 15.035156 6.792969 13.917969 7.203125 12.828125 C 7.839844 11.152344 8.683594 9.585938 9.632812 8.074219 C 10.464844 6.753906 11.308594 5.4375 12.152344 4.125 C 12.25 3.980469 12.339844 3.820312 12.4375 3.664062 C 12.484375 3.585938 12.535156 3.585938 12.582031 3.664062 C 12.59375 3.683594 12.613281 3.703125 12.621094 3.722656 C 13.523438 5.203125 14.496094 6.632812 15.40625 8.113281 C 16.230469 9.449219 17.003906 10.820312 17.589844 12.28125 C 17.828125 12.859375 18.0625 13.425781 18.148438 14.054688 C 18.394531 15.769531 17.984375 17.296875 16.875 18.628906 C 15.847656 19.863281 14.503906 20.519531 12.898438 20.640625 C 12.757812 20.648438 12.621094 20.660156 12.554688 20.660156 Z M 12.191406 18.863281 C 12.78125 18.863281 13.328125 18.738281 13.835938 18.445312 C 14.828125 17.867188 15.394531 17.023438 15.433594 15.855469 C 15.433594 15.769531 15.472656 15.621094 15.40625 15.613281 C 15.296875 15.59375 15.289062 15.738281 15.25 15.816406 C 14.679688 16.796875 13.828125 17.347656 12.699219 17.394531 C 10.9375 17.464844 9.554688 16.023438 9.59375 14.347656 C 9.59375 14.277344 9.59375 14.21875 9.59375 14.152344 C 9.59375 14.132812 9.585938 14.101562 9.574219 14.09375 C 9.535156 14.074219 9.515625 14.101562 9.496094 14.132812 C 9.46875 14.160156 9.449219 14.199219 9.425781 14.230469 C 8.828125 15.21875 8.78125 16.25 9.359375 17.257812 C 9.976562 18.335938 10.957031 18.824219 12.191406 18.863281 Z M 12.191406 18.863281 "/>
</g>
</svg>
