<?xml version="1.0" encoding="UTF-8"?>
<svg xmlns="http://www.w3.org/2000/svg" xmlns:xlink="http://www.w3.org/1999/xlink" width="25px" height="25px" viewBox="0 0 25 25" version="1.1">
<defs>
<filter id="alpha" filterUnits="objectBoundingBox" x="0%" y="0%" width="100%" height="100%">
  <feColorMatrix type="matrix" in="SourceGraphic" values="0 0 0 0 1 0 0 0 0 1 0 0 0 0 1 0 0 0 1 0"/>
</filter>
<mask id="mask0">
  <g filter="url(#alpha)">
<rect x="0" y="0" width="25" height="25" style="fill:rgb(0%,0%,0%);fill-opacity:0.2;stroke:none;"/>
  </g>
</mask>
<clipPath id="clip1">
  <rect x="0" y="0" width="25" height="25"/>
</clipPath>
<g id="surface5" clip-path="url(#clip1)">
<path style=" stroke:none;fill-rule:nonzero;fill:rgb(13.72549%,12.156863%,12.54902%);fill-opacity:1;" d="M 12.5 9.375 C 12.5 11.53125 10.75 13.28125 8.59375 13.28125 C 6.4375 13.28125 4.6875 11.53125 4.6875 9.375 C 4.6875 7.21875 6.4375 5.46875 8.59375 5.46875 C 10.75 5.46875 12.5 7.21875 12.5 9.375 Z M 12.5 9.375 "/>
</g>
<mask id="mask1">
  <g filter="url(#alpha)">
<rect x="0" y="0" width="25" height="25" style="fill:rgb(0%,0%,0%);fill-opacity:0.2;stroke:none;"/>
  </g>
</mask>
<clipPath id="clip2">
  <rect x="0" y="0" width="25" height="25"/>
</clipPath>
<g id="surface8" clip-path="url(#clip2)">
<path style=" stroke:none;fill-rule:nonzero;fill:rgb(13.72549%,12.156863%,12.54902%);fill-opacity:1;" d="M 19.023438 14.0625 C 19.023438 11.054688 16.445312 8.59375 13.28125 8.59375 C 10.585938 8.59375 8.359375 10.351562 7.734375 12.734375 C 6.015625 12.96875 4.6875 14.414062 4.6875 16.09375 C 4.6875 17.96875 6.289062 19.53125 8.28125 19.53125 L 19.023438 19.53125 C 20.625 19.53125 21.875 18.320312 21.875 16.796875 C 21.875 15.273438 20.585938 14.0625 19.023438 14.0625 Z M 19.023438 14.0625 "/>
</g>
<mask id="mask2">
  <g filter="url(#alpha)">
<rect x="0" y="0" width="25" height="25" style="fill:rgb(0%,0%,0%);fill-opacity:0.2;stroke:none;"/>
  </g>
</mask>
<clipPath id="clip3">
  <rect x="0" y="0" width="25" height="25"/>
</clipPath>
<g id="surface11" clip-path="url(#clip3)">
<path style=" stroke:none;fill-rule:nonzero;fill:rgb(13.72549%,12.156863%,12.54902%);fill-opacity:1;" d="M 12.5 8.59375 C 12.5 8.203125 12.421875 7.8125 12.34375 7.460938 C 9.921875 7.695312 7.929688 9.375 7.34375 11.5625 C 7.03125 11.601562 6.71875 11.71875 6.40625 11.835938 C 7.03125 12.265625 7.773438 12.5 8.59375 12.5 C 10.742188 12.5 12.5 10.742188 12.5 8.59375 Z M 12.5 8.59375 "/>
</g>
</defs>
<g id="surface1">
<path style=" stroke:none;fill-rule:nonzero;fill:rgb(30.980392%,36.470588%,45.098039%);fill-opacity:1;" d="M 25 12.5 C 25 19.402344 19.402344 25 12.5 25 C 5.597656 25 0 19.402344 0 12.5 C 0 5.597656 5.597656 0 12.5 0 C 19.402344 0 25 5.597656 25 12.5 Z M 25 12.5 "/>
<use xlink:href="#surface5" mask="url(#mask0)"/>
<path style=" stroke:none;fill-rule:nonzero;fill:rgb(100%,64.705882%,0%);fill-opacity:1;" d="M 12.5 8.59375 C 12.5 10.75 10.75 12.5 8.59375 12.5 C 6.4375 12.5 4.6875 10.75 4.6875 8.59375 C 4.6875 6.4375 6.4375 4.6875 8.59375 4.6875 C 10.75 4.6875 12.5 6.4375 12.5 8.59375 Z M 12.5 8.59375 "/>
<use xlink:href="#surface8" mask="url(#mask1)"/>
<use xlink:href="#surface11" mask="url(#mask2)"/>
<path style=" stroke:none;fill-rule:nonzero;fill:rgb(100%,100%,100%);fill-opacity:1;" d="M 19.023438 13.28125 C 19.023438 10.273438 16.445312 7.8125 13.28125 7.8125 C 10.585938 7.8125 8.359375 9.570312 7.734375 11.953125 C 6.015625 12.1875 4.6875 13.632812 4.6875 15.3125 C 4.6875 17.1875 6.289062 18.75 8.28125 18.75 L 19.023438 18.75 C 20.625 18.75 21.875 17.539062 21.875 16.015625 C 21.875 14.492188 20.585938 13.28125 19.023438 13.28125 Z M 19.023438 13.28125 "/>
</g>
</svg>
