<?xml version="1.0" encoding="utf-8"?>
<!-- Generator: Adobe Illustrator 19.0.0, SVG Export Plug-In . SVG Version: 6.00 Build 0)  -->
<svg version="1.1" id="a3a44bd2-1d5c-46a0-ab88-fbd2ff893ca0"
	 xmlns="http://www.w3.org/2000/svg" xmlns:xlink="http://www.w3.org/1999/xlink" x="0px" y="0px"
	 viewBox="-132 -208.7 1100.5 691.7" style="enable-background:new -132 -208.7 1100.5 691.7;" xml:space="preserve">
<style type="text/css">
	.st0{fill:#D0CDE1;}
	.st1{opacity:0.1;enable-background:new    ;}
	.st2{fill:#3F3D56;}
	.st3{fill:#0CB593;}
	.st4{opacity:0.2;enable-background:new    ;}
	.st5{stroke:#3F3D56;stroke-miterlimit:10;}
</style>
<title>two_factor_authentication</title>
<rect x="172.2" y="287.3" class="st0" width="305.7" height="149.9"/>
<path class="st1" d="M400.7,437.2H174c-0.7,0-1.3-0.6-1.3-1.3V288.6c0-0.7,0.6-1.3,1.3-1.3h2.8L400.7,437.2z"/>
<rect x="455.9" y="359.5" class="st2" width="249.7" height="2"/>
<path class="st2" d="M296.2-114.7H150.4v-3H84.3v3H-62c-5.4,0-9.9,4.4-9.9,9.9l0,0V94.8c0,5.4,4.4,9.9,9.9,9.9h358.2
	c5.4,0,9.9-4.4,9.9-9.9v-199.6C306.1-110.3,301.6-114.7,296.2-114.7L296.2-114.7z"/>
<rect x="-58.7" y="-97.3" class="st0" width="351.5" height="198.3"/>
<circle class="st3" cx="116.7" cy="-106.3" r="3.6"/>
<path class="st2" d="M45.9-23.3h-8.4c-1.2,0-2.1-0.9-2.1-2.1v-8.4c0-1.2,0.9-2.1,2.1-2.1h8.4c1.2,0,2.1,0.9,2.1,2.1v8.4
	C47.9-24.2,47-23.3,45.9-23.3z M37.6-34.4c-0.4,0-0.7,0.3-0.7,0.7v8.4c0,0.4,0.3,0.7,0.7,0.7h8.4c0.4,0,0.7-0.3,0.7-0.7v-8.4
	c0-0.4-0.3-0.7-0.7-0.7H37.6z"/>
<rect x="36.2" y="-24.7" class="st2" width="158.7" height="1.4"/>
<rect x="153.8" y="13.6" class="st3" width="36.9" height="11.1"/>
<path class="st2" d="M193.4,22h-34.1c-1.2,0-2.1-0.9-2.1-2.1v-8.4c0-1.2,0.9-2.1,2.1-2.1h34.1c1.2,0,2.1,0.9,2.1,2.1v8.4
	C195.4,21.1,194.5,22,193.4,22z M159.3,10.8c-0.4,0-0.7,0.3-0.7,0.7v8.4c0,0.4,0.3,0.7,0.7,0.7h34.1c0.4,0,0.7-0.3,0.7-0.7v-8.4
	c0-0.4-0.3-0.7-0.7-0.7H159.3z"/>
<path class="st2" d="M490.1,427H187.1c-1.4,0-2.6-1.2-2.6-2.6V277.1c0-1.4,1.2-2.6,2.6-2.6h303.1c1.4,0,2.6,1.2,2.6,2.6v147.3
	C492.7,425.8,491.6,427,490.1,427z M187.1,277.1v147.3h303.1V277.1H187.1z"/>
<polygon class="st1" points="214.9,101 -58.7,101 -58.7,-82.3 "/>
<path class="st2" d="M315.9,97.4h-34.3v-2.5c0-0.3-0.2-0.5-0.5-0.5h-11.8c-0.3,0-0.5,0.2-0.5,0.5l0,0v2.5h-7.4v-2.5
	c0-0.3-0.2-0.5-0.5-0.5l0,0h-11.8c-0.3,0-0.5,0.2-0.5,0.5l0,0v2.5h-7.4v-2.5c0-0.3-0.2-0.5-0.5-0.5l0,0h-11.8
	c-0.3,0-0.5,0.2-0.5,0.5l0,0v2.5h-7.3v-2.5c0-0.3-0.2-0.5-0.5-0.5l0,0h-11.8c-0.3,0-0.5,0.2-0.5,0.5l0,0v2.5h-7.4v-2.5
	c0-0.3-0.2-0.5-0.5-0.5l0,0H189c-0.3,0-0.5,0.2-0.5,0.5l0,0v2.5h-7.4v-2.5c0-0.3-0.2-0.5-0.5-0.5l0,0h-11.8c-0.3,0-0.5,0.2-0.5,0.5
	l0,0v2.5H161v-2.5c0-0.3-0.2-0.5-0.5-0.5l0,0H68.5c-0.3,0-0.5,0.2-0.5,0.5l0,0v2.5h-7.4v-2.5c0-0.3-0.2-0.5-0.5-0.5l0,0H48.3
	c-0.3,0-0.5,0.2-0.5,0.5l0,0v2.5h-7.4v-2.5c0-0.3-0.2-0.5-0.5-0.5l0,0H28.2c-0.3,0-0.5,0.2-0.5,0.5l0,0v2.5h-7.4v-2.5
	c0-0.3-0.2-0.5-0.5-0.5l0,0H8.1c-0.3,0-0.5,0.2-0.5,0.5l0,0v2.5H0.3v-2.5c0-0.3-0.2-0.5-0.5-0.5l0,0h-11.8c-0.3,0-0.5,0.2-0.5,0.5
	l0,0v2.5h-7.4v-2.5c0-0.3-0.2-0.5-0.5-0.5l0,0H-32c-0.3,0-0.5,0.2-0.5,0.5l0,0v2.5h-7.4v-2.5c0-0.3-0.2-0.5-0.5-0.5l0,0h-11.8
	c-0.3,0-0.5,0.2-0.5,0.5l0,0v2.5h-22.5c-6.5,0-11.8,5.3-11.8,11.8v5.3c0,6.5,5.3,11.8,11.8,11.8h391.1c6.5,0,11.8-5.3,11.8-11.8
	v-5.3C327.7,102.7,322.4,97.4,315.9,97.4L315.9,97.4z"/>
<path class="st2" d="M208.7,33.8H25c-1.2,0-2.1-0.9-2.1-2.1v-76.5c0-1.2,0.9-2.1,2.1-2.1h183.7c1.2,0,2.1,0.9,2.1,2.1v76.5
	C210.8,32.9,209.8,33.8,208.7,33.8z M25-45.5c-0.4,0-0.7,0.3-0.7,0.7v76.5c0,0.4,0.3,0.7,0.7,0.7h183.7c0.4,0,0.7-0.3,0.7-0.7v-76.5
	c0-0.4-0.3-0.7-0.7-0.7H25z"/>
<path class="st2" d="M45.9-2.4h-8.4c-1.2,0-2.1-0.9-2.1-2.1v-8.4c0-1.2,0.9-2.1,2.1-2.1h8.4c1.2,0,2.1,0.9,2.1,2.1v8.4
	C47.9-3.3,47-2.4,45.9-2.4z M37.6-13.5c-0.4,0-0.7,0.3-0.7,0.7v8.4c0,0.4,0.3,0.7,0.7,0.7h8.4c0.4,0,0.7-0.3,0.7-0.7v-8.4
	c0-0.4-0.3-0.7-0.7-0.7H37.6z"/>
<rect x="36.2" y="-3.8" class="st2" width="158.7" height="1.4"/>
<rect x="260.3" y="-63.6" class="st2" width="241.2" height="2"/>
<rect x="703.6" y="126.2" class="st2" width="2" height="235.3"/>
<circle class="st2" cx="260.3" cy="-63.6" r="14"/>
<circle class="st2" cx="501.6" cy="-61.6" r="14"/>
<circle class="st2" cx="704.6" cy="126.2" r="11"/>
<circle class="st2" cx="455.9" cy="359.5" r="11"/>
<polygon class="st2" points="650.7,-170.1 589.3,-136.5 708.3,-57.8 765.2,-95.3 "/>
<polygon class="st2" points="798.3,-63.4 929.2,20.9 868.4,57 737.6,-30.3 "/>
<path class="st0" d="M774.3-105.3c14.1,6.9,24.3,19.8,27.8,35.1c1.4,5.6-0.6,11.5-5,15.2l-37.8,31.9c-5.6,4.7-13.5,5.5-19.8,1.9
	c-15.4-8.5-40.1-26.4-29-49.1c1.2-2.5,3.1-4.7,5.5-6.2l42.2-27.9C762.8-107.4,769-107.8,774.3-105.3z"/>
<ellipse transform="matrix(-0.5972 -0.8021 0.8021 -0.5972 1131.704 508.7102)" class="st2" cx="693.6" cy="-29.8" rx="62.2" ry="42.3"/>
<path class="st4" d="M712.8,19.4c-7.7,5.7-25.9-5.5-42.3-25.5c-1.5-1.8-2.9-3.6-4.3-5.5c-1-1.4-2-2.8-3-4.2
	c-15.2-22-21.2-43.5-13.4-49.4c7.9-5.9,27,6.3,43.8,27.4c0.9,1.2,1.9,2.4,2.8,3.6c3.2,4.3,6.1,8.7,8.8,13.3
	C716.1-2.3,719.6,14.3,712.8,19.4z"/>
<path class="st0" d="M705.3-20.9L670.5-6.1L645.7,4.4l-3.7-5l21.2-15.3l30.5-22c0.9,1.2,1.9,2.4,2.8,3.6
	C699.7-29.9,702.6-25.5,705.3-20.9z"/>
<circle class="st0" cx="639" cy="5.3" r="7.5"/>
<path class="st0" d="M636.7,85.1c-0.5-0.4-1.1-0.7-1.7-0.9c-40.7-8.4-66.3-31.8-78.2-71.6c-0.6-1.9-2.6-3-4.5-2.4
	c-1.9,0.6-3,2.6-2.4,4.5c12.6,41.9,40.8,67.7,83.7,76.6c2,0.4,3.9-0.9,4.3-2.8C638.1,87.2,637.7,85.9,636.7,85.1L636.7,85.1z"/>
<path class="st0" d="M646.7,53.6c-0.5-0.4-1.1-0.7-1.7-0.9c-30.5-6.3-49.7-23.9-58.7-53.7c-0.6-1.9-2.6-3-4.5-2.4
	c-1.9,0.6-3,2.6-2.4,4.5c9.7,32.1,31.2,51.9,64.1,58.7c2,0.4,3.9-0.9,4.3-2.8C648.1,55.7,647.7,54.5,646.7,53.6L646.7,53.6z"/>
<path class="st0" d="M622,117.3c-0.5-0.4-1.1-0.7-1.7-0.9c-40.6-8.4-85-49-96.9-88.7c-0.6-1.9-2.6-3-4.5-2.4c-1.9,0.6-3,2.6-2.4,4.5
	c12.6,41.9,59.5,84.8,102.4,93.7c2,0.4,3.9-0.9,4.3-2.8C623.3,119.5,622.9,118.2,622,117.3z"/>
<path class="st3" d="M406.4,311.3H253.9c-2.2,0-3.9,1.8-3.9,3.9v36.5c0,2.2,1.8,3.9,3.9,3.9h152.5c2.2,0,3.9-1.8,3.9-3.9v-36.5
	C410.4,313.1,408.6,311.3,406.4,311.3z"/>
<path class="st3" d="M394.4,367.9H284.3c-2.2,0-3.9,1.8-3.9,3.9v25.7c0,2.2,1.8,3.9,3.9,3.9h110.1c2.2,0,3.9-1.8,3.9-3.9v-25.7
	C398.3,369.6,396.5,367.9,394.4,367.9z"/>
<rect x="278.1" y="332.3" class="st2" width="18.5" height="2.3"/>
<rect x="303.5" y="332.3" class="st2" width="18.5" height="2.3"/>
<rect x="328.9" y="332.3" class="st2" width="18.5" height="2.3"/>
<rect x="354.4" y="332.3" class="st2" width="18.5" height="2.3"/>
<rect x="379.8" y="332.3" class="st2" width="18.5" height="2.3"/>
<path class="st2" d="M416.7,348.5H260.5c-1.9,0-3.5-1.6-3.5-3.5v-39.3c0-1.9,1.6-3.5,3.5-3.5h156.1c1.9,0,3.5,1.6,3.5,3.5v39.3
	C420.2,347,418.6,348.5,416.7,348.5z M260.5,304.6c-0.6,0-1.2,0.5-1.2,1.2v39.3c0,0.6,0.5,1.2,1.2,1.2h156.1c0.6,0,1.2-0.5,1.2-1.2
	v-39.3c0-0.6-0.5-1.2-1.2-1.2H260.5z"/>
<g>
	<path class="st5" d="M303.3,384.7h-22.4c-0.3,0-0.5-0.6-0.5-1.4v-15c0-0.7,0.2-1.4,0.5-1.4h22.4c0.3,0,0.5,0.6,0.5,1.4v15
		C303.8,384.1,303.5,384.7,303.3,384.7z M280.8,367.9c-0.1,0-0.2,0.2-0.2,0.5v15c0,0.3,0.1,0.5,0.2,0.5h22.4c0.1,0,0.2-0.2,0.2-0.5
		v-15c0-0.3-0.1-0.5-0.2-0.5H280.8z"/>
	<path class="st5" d="M326.7,384.7h-22.4c-0.3,0-0.5-0.6-0.5-1.4v-15c0-0.7,0.2-1.4,0.5-1.4h22.4c0.3,0,0.5,0.6,0.5,1.4v15
		C327.2,384.1,327,384.7,326.7,384.7z M304.2,367.9c-0.1,0-0.2,0.2-0.2,0.5v15c0,0.3,0.1,0.5,0.2,0.5h22.4c0.1,0,0.2-0.2,0.2-0.5
		v-15c0-0.3-0.1-0.5-0.2-0.5H304.2z"/>
	<path class="st5" d="M349.8,384.7h-22.4c-0.3,0-0.5-0.6-0.5-1.4v-15c0-0.7,0.2-1.4,0.5-1.4h22.4c0.3,0,0.5,0.6,0.5,1.4v15
		C350.3,384.1,350.1,384.7,349.8,384.7z M327.4,367.9c-0.1,0-0.2,0.2-0.2,0.5v15c0,0.3,0.1,0.5,0.2,0.5h22.4c0.1,0,0.2-0.2,0.2-0.5
		v-15c0-0.3-0.1-0.5-0.2-0.5H327.4z"/>
	<path class="st5" d="M373.3,384.7h-22.4c-0.3,0-0.5-0.6-0.5-1.4v-15c0-0.7,0.2-1.4,0.5-1.4h22.4c0.3,0,0.5,0.6,0.5,1.4v15
		C373.8,384.1,373.6,384.7,373.3,384.7z M350.8,367.9c-0.1,0-0.2,0.2-0.2,0.5v15c0,0.3,0.1,0.5,0.2,0.5h22.4c0.1,0,0.2-0.2,0.2-0.5
		v-15c0-0.3-0.1-0.5-0.2-0.5H350.8z"/>
	<path class="st5" d="M396.4,384.7H374c-0.3,0-0.5-0.6-0.5-1.4v-15c0-0.7,0.2-1.4,0.5-1.4h22.4c0.3,0,0.5,0.6,0.5,1.4v15
		C396.9,384.1,396.7,384.7,396.4,384.7z M374,367.9c-0.1,0-0.2,0.2-0.2,0.5v15c0,0.3,0.1,0.5,0.2,0.5h22.4c0.1,0,0.2-0.2,0.2-0.5
		v-15c0-0.3-0.1-0.5-0.2-0.5H374z"/>
	<path class="st5" d="M303.3,401.5h-22.4c-0.3,0-0.5-0.6-0.5-1.4v-15c0-0.7,0.2-1.4,0.5-1.4h22.4c0.3,0,0.5,0.6,0.5,1.4v15
		C303.8,400.8,303.5,401.5,303.3,401.5z M280.8,384.7c-0.1,0-0.2,0.2-0.2,0.5v15c0,0.3,0.1,0.5,0.2,0.5h22.4c0.1,0,0.2-0.2,0.2-0.5
		v-15c0-0.3-0.1-0.5-0.2-0.5H280.8z"/>
	<path class="st5" d="M326.7,401.5h-22.4c-0.3,0-0.5-0.6-0.5-1.4v-15c0-0.7,0.2-1.4,0.5-1.4h22.4c0.3,0,0.5,0.6,0.5,1.4v15
		C327.2,400.8,327,401.5,326.7,401.5z M304.2,384.7c-0.1,0-0.2,0.2-0.2,0.5v15c0,0.3,0.1,0.5,0.2,0.5h22.4c0.1,0,0.2-0.2,0.2-0.5
		v-15c0-0.3-0.1-0.5-0.2-0.5H304.2z"/>
	<path class="st5" d="M349.8,401.5h-22.4c-0.3,0-0.5-0.6-0.5-1.4v-15c0-0.7,0.2-1.4,0.5-1.4h22.4c0.3,0,0.5,0.6,0.5,1.4v15
		C350.3,400.8,350.1,401.5,349.8,401.5z M327.4,384.7c-0.1,0-0.2,0.2-0.2,0.5v15c0,0.3,0.1,0.5,0.2,0.5h22.4c0.1,0,0.2-0.2,0.2-0.5
		v-15c0-0.3-0.1-0.5-0.2-0.5H327.4z"/>
	<path class="st5" d="M373.3,401.5h-22.4c-0.3,0-0.5-0.6-0.5-1.4v-15c0-0.7,0.2-1.4,0.5-1.4h22.4c0.3,0,0.5,0.6,0.5,1.4v15
		C373.8,400.8,373.6,401.5,373.3,401.5z M350.8,384.7c-0.1,0-0.2,0.2-0.2,0.5v15c0,0.3,0.1,0.5,0.2,0.5h22.4c0.1,0,0.2-0.2,0.2-0.5
		v-15c0-0.3-0.1-0.5-0.2-0.5H350.8z"/>
	<path class="st5" d="M396.4,401.5H374c-0.3,0-0.5-0.6-0.5-1.4v-15c0-0.7,0.2-1.4,0.5-1.4h22.4c0.3,0,0.5,0.6,0.5,1.4v15
		C396.9,400.8,396.7,401.5,396.4,401.5z M374,384.7c-0.1,0-0.2,0.2-0.2,0.5v15c0,0.3,0.1,0.5,0.2,0.5h22.4c0.1,0,0.2-0.2,0.2-0.5
		v-15c0-0.3-0.1-0.5-0.2-0.5H374z"/>
</g>
</svg>
