<?xml version="1.0" encoding="utf-8"?>
<!-- Generator: Adobe Illustrator 19.0.0, SVG Export Plug-In . SVG Version: 6.00 Build 0)  -->
<svg version="1.1" id="Layer_1" xmlns="http://www.w3.org/2000/svg" xmlns:xlink="http://www.w3.org/1999/xlink" x="0px" y="0px"
	 viewBox="0 0 107.4 109.8" style="enable-background:new 0 0 107.4 109.8;" xml:space="preserve">
<style type="text/css">
	.st0{fill:#02B29C;stroke:#02B29C;stroke-width:0.7501;stroke-miterlimit:10;}
	.st1{fill:#FFFFFF;}
	.st2{fill:url(#SVGID_1_);}
	.st3{fill:none;stroke:#FFFFFF;stroke-width:2;stroke-miterlimit:10;}
	.st4{fill:url(#SVGID_2_);}
	.st5{fill:url(#SVGID_3_);}
	.st6{fill:url(#SVGID_4_);}
	.st7{fill:url(#SVGID_5_);}
	.st8{fill:url(#SVGID_6_);}
	.st9{fill:url(#SVGID_7_);stroke:#FFFFFF;stroke-width:2;stroke-miterlimit:10;}
	.st10{fill:url(#SVGID_8_);}
	.st11{fill:url(#SVGID_9_);stroke:#FFFFFF;stroke-width:2;stroke-miterlimit:10;}
	.st12{font-family:'Revamped';}
	.st13{font-size:10px;}
</style>
<g>
	<path id="XMLID_74_" class="st0" d="M47.3,1h-6.5c-0.6,0-1,0.4-1,1v16h8.5V2C48.3,1.4,47.8,1,47.3,1z"/>
	<path id="XMLID_73_" class="st0" d="M63.8,1h-6.5c-0.6,0-1,0.4-1,1v16h8.5V2C64.8,1.4,64.4,1,63.8,1z"/>
	<path id="XMLID_72_" class="st0" d="M79,1.2h-6.5c-0.6,0-1,0.4-1,1v16H80v-16C80,1.6,79.6,1.2,79,1.2z"/>
	<path id="XMLID_71_" class="st0" d="M33,0.7h-6.5c-0.6,0-1,0.4-1,1v16H34v-16C34,1.1,33.6,0.7,33,0.7z"/>
</g>
<path id="XMLID_68_" class="st0" d="M17.7,38.6v-8.5h-16c-0.6,0-1,0.4-1,1v6.5c0,0.6,0.4,1,1,1H17.7z"/>
<path id="XMLID_67_" class="st0" d="M17.7,81.5v-8.5h-16c-0.6,0-1,0.4-1,1v6.5c0,0.6,0.4,1,1,1H17.7z"/>
<path id="XMLID_66_" class="st0" d="M17.7,53.7v-8.5h-16c-0.6,0-1,0.4-1,1v6.5c0,0.6,0.4,1,1,1H17.7z"/>
<path id="XMLID_65_" class="st0" d="M17.7,67.3v-8.5h-16c-0.6,0-1,0.4-1,1v6.5c0,0.6,0.4,1,1,1H17.7z"/>
<path id="XMLID_78_" class="st0" d="M48.3,92h-8.5v16c0,0.6,0.4,1,1,1h6.5c0.6,0,1-0.4,1-1V92z"/>
<path id="XMLID_77_" class="st0" d="M64.8,92h-8.5v16c0,0.6,0.4,1,1,1h6.5c0.6,0,1-0.4,1-1V92z"/>
<path id="XMLID_76_" class="st0" d="M80,92h-8.5v16c0,0.6,0.4,1,1,1H79c0.6,0,1-0.4,1-1V92z"/>
<path id="XMLID_75_" class="st0" d="M34,92h-8.5v16c0,0.6,0.4,1,1,1H33c0.6,0,1-0.4,1-1V92z"/>
<path id="XMLID_80_" class="st0" d="M106.6,80.5v-6.5c0-0.6-0.4-1-1-1h-16v8.5h16C106.1,81.5,106.6,81,106.6,80.5z"/>
<path id="XMLID_79_" class="st0" d="M106.6,37.8v-6.5c0-0.6-0.4-1-1-1h-16v8.5h16C106.1,38.8,106.6,38.4,106.6,37.8z"/>
<path id="XMLID_70_" class="st0" d="M106.6,52.7v-6.5c0-0.6-0.4-1-1-1h-16v8.5h16C106.1,53.7,106.6,53.3,106.6,52.7z"/>
<path id="XMLID_69_" class="st0" d="M106.6,66.3v-6.5c0-0.6-0.4-1-1-1h-16v8.5h16C106.1,67.3,106.6,66.8,106.6,66.3z"/>
<path class="st1" d="M41.5,21.6"/>
<linearGradient id="SVGID_1_" gradientUnits="userSpaceOnUse" x1="17.8952" y1="55.1937" x2="89.3637" y2="55.1937">
	<stop  offset="1.280050e-002" style="stop-color:#5CC0A0"/>
	<stop  offset="1" style="stop-color:#253B7F"/>
</linearGradient>
<path class="st2" d="M85.3,92.7H22c-2.2,0-4.1-1.8-4.1-4.1V21.8c0-2.2,1.8-4.1,4.1-4.1h63.3c2.2,0,4.1,1.8,4.1,4.1v66.8
	C89.4,90.9,87.5,92.7,85.3,92.7z"/>
<g>
	<polygon class="st1" points="36.9,55.8 77,11.3 47.5,63 	"/>
	<polygon class="st1" points="65.9,55.6 26.9,98.4 56.5,46.7 	"/>
</g>
<g>
	<polyline class="st3" points="18,33 33.2,33 33.2,17.6 	"/>
</g>
<g>
	<linearGradient id="SVGID_2_" gradientUnits="userSpaceOnUse" x1="35.1262" y1="41.5696" x2="38.2617" y2="41.5696">
		<stop  offset="1.280050e-002" style="stop-color:#5CC0A0"/>
		<stop  offset="1" style="stop-color:#253B7F"/>
	</linearGradient>
	<ellipse class="st4" cx="36.7" cy="41.6" rx="1.6" ry="1.7"/>
	<polyline class="st3" points="17.9,53.2 30.2,53.2 35.7,44.6 	"/>
	<g>
		<path class="st3" d="M33.9,41.4c-0.1,1.7,1.1,3.1,2.6,3.2c1.5,0.1,2.8-1.2,2.9-2.9c0.1-1.7-1.1-3.1-2.6-3.2
			C35.3,38.4,34,39.7,33.9,41.4z"/>
	</g>
</g>
<g>
	<circle class="st3" cx="46" cy="24.9" r="2.4"/>
</g>
<linearGradient id="SVGID_3_" gradientUnits="userSpaceOnUse" x1="77.7093" y1="55.6096" x2="81.897" y2="55.6096">
	<stop  offset="1.280050e-002" style="stop-color:#5CC0A0"/>
	<stop  offset="1" style="stop-color:#253B7F"/>
</linearGradient>
<circle class="st5" cx="79.8" cy="55.6" r="2.1"/>
<polyline class="st3" points="89.5,75.5 80.1,75.5 75.8,79.8 "/>
<linearGradient id="SVGID_4_" gradientUnits="userSpaceOnUse" x1="44.6554" y1="24.9386" x2="47.4973" y2="24.9386">
	<stop  offset="1.280050e-002" style="stop-color:#5CC0A0"/>
	<stop  offset="1" style="stop-color:#253B7F"/>
</linearGradient>
<circle class="st6" cx="46.1" cy="24.9" r="1.4"/>
<polyline class="st3" points="18,76.9 27.9,76.9 32.4,72.4 "/>
<line class="st3" x1="28" y1="76.9" x2="28" y2="92.9"/>
<g>
	<circle class="st3" cx="34" cy="69.8" r="3.1"/>
</g>
<linearGradient id="SVGID_5_" gradientUnits="userSpaceOnUse" x1="32.3536" y1="69.8276" x2="36.0036" y2="69.8276">
	<stop  offset="1.280050e-002" style="stop-color:#5CC0A0"/>
	<stop  offset="1" style="stop-color:#253B7F"/>
</linearGradient>
<circle class="st7" cx="34.2" cy="69.8" r="1.8"/>
<g>
	<circle class="st3" cx="73.6" cy="81.8" r="3.1"/>
</g>
<line class="st3" x1="73.4" y1="84.9" x2="73.4" y2="92.9"/>
<linearGradient id="SVGID_6_" gradientUnits="userSpaceOnUse" x1="71.8449" y1="81.8102" x2="75.3119" y2="81.8102">
	<stop  offset="1.280050e-002" style="stop-color:#5CC0A0"/>
	<stop  offset="1" style="stop-color:#253B7F"/>
</linearGradient>
<circle class="st8" cx="73.6" cy="81.8" r="1.7"/>
<linearGradient id="SVGID_7_" gradientUnits="userSpaceOnUse" x1="76.6342" y1="35.7187" x2="89.3221" y2="35.7187">
	<stop  offset="1.280050e-002" style="stop-color:#5CC0A0"/>
	<stop  offset="1" style="stop-color:#253B7F"/>
</linearGradient>
<line class="st9" x1="89.3" y1="35.7" x2="76.6" y2="35.7"/>
<g>
	<circle class="st3" cx="73.8" cy="35.4" r="3.3"/>
</g>
<linearGradient id="SVGID_8_" gradientUnits="userSpaceOnUse" x1="72.0147" y1="35.4075" x2="75.4817" y2="35.4075">
	<stop  offset="1.280050e-002" style="stop-color:#5CC0A0"/>
	<stop  offset="1" style="stop-color:#253B7F"/>
</linearGradient>
<circle class="st10" cx="73.7" cy="35.4" r="1.7"/>
<linearGradient id="SVGID_9_" gradientUnits="userSpaceOnUse" x1="82.9155" y1="56.6848" x2="89.5139" y2="56.6848">
	<stop  offset="1.280050e-002" style="stop-color:#5CC0A0"/>
	<stop  offset="1" style="stop-color:#253B7F"/>
</linearGradient>
<line class="st11" x1="89.5" y1="56.7" x2="82.9" y2="56.7"/>
<g>
	<circle class="st3" cx="79.7" cy="55.6" r="3.4"/>
</g>
<polyline class="st3" points="53.5,94.9 53.5,87.6 73.2,65.3 79.5,65.3 79.5,58.7 "/>
<text transform="matrix(1 0 0 1 21.3088 27.9942)" class="st1 st12 st13">B</text>
</svg>
